<svg width="57" height="57" viewBox="0 0 57 57" fill="none" xmlns="http://www.w3.org/2000/svg">
<circle cx="28.4692" cy="28.4692" r="28.4692" fill="#2CDCFE"/>
<path fill-rule="evenodd" clip-rule="evenodd" d="M29.0851 57.0001L11.3204 39.2354L43.9545 16.9849L56.2997 29.3301C55.803 44.2369 43.9296 56.2621 29.0851 57.0001Z" fill="url(#paint0_linear)"/>
<path fill-rule="evenodd" clip-rule="evenodd" d="M11.8622 18.9135C11.8622 17.6396 12.8988 16.6069 14.1776 16.6069H43.947C45.2258 16.6069 46.2624 17.6396 46.2624 18.9135V38.0247C46.2624 39.2986 45.2258 40.3313 43.947 40.3313H14.1776C12.8988 40.3313 11.8622 39.2986 11.8622 38.0247V18.9135ZM24.4315 25.1741C24.4315 26.8119 23.0987 28.1396 21.4545 28.1396C19.8104 28.1396 18.4776 26.8119 18.4776 25.1741C18.4776 23.5362 19.8104 22.2085 21.4545 22.2085C23.0987 22.2085 24.4315 23.5362 24.4315 25.1741ZM15.8314 34.4002C15.8314 31.3065 18.349 28.7986 21.4545 28.7986C24.5601 28.7986 27.0777 31.3065 27.0777 34.4002H15.8314ZM30.0546 25.0093C30.0546 24.5543 30.4248 24.1855 30.8815 24.1855H41.797C42.2537 24.1855 42.624 24.5543 42.624 25.0093C42.624 25.4643 42.2537 25.8331 41.797 25.8331H30.8815C30.4248 25.8331 30.0546 25.4643 30.0546 25.0093ZM30.8815 28.7986C30.4248 28.7986 30.0546 29.1674 30.0546 29.6224C30.0546 30.0773 30.4248 30.4461 30.8815 30.4461H41.797C42.2537 30.4461 42.624 30.0773 42.624 29.6224C42.624 29.1674 42.2537 28.7986 41.797 28.7986H30.8815Z" fill="white"/>
<defs>
<linearGradient id="paint0_linear" x1="33.81" y1="16.9849" x2="33.81" y2="57.0001" gradientUnits="userSpaceOnUse">
<stop stop-color="#2DCAFD"/>
<stop offset="1" stop-color="#1E92CC" stop-opacity="0"/>
</linearGradient>
</defs>
</svg>
