<svg width="48" height="49" viewBox="0 0 48 49" fill="none" xmlns="http://www.w3.org/2000/svg">
<circle cx="24" cy="24" r="24" fill="#C4C4C4"/>
<path fill-rule="evenodd" clip-rule="evenodd" d="M24.5191 48.0519L9.54327 33.0762L37.0543 14.3186L47.4616 24.7258C47.0427 37.2925 37.0333 47.4298 24.5191 48.0519Z" fill="url(#paint0_linear)"/>
<path fill-rule="evenodd" clip-rule="evenodd" d="M10 15.9444C10 14.8706 10.8739 14 11.9519 14H37.0481C38.1261 14 39 14.8706 39 15.9444V32.0556C39 33.1294 38.1261 34 37.0481 34H11.9519C10.8739 34 10 33.1294 10 32.0556V15.9444ZM20.5962 21.2222C20.5962 22.6029 19.4726 23.7222 18.0865 23.7222C16.7005 23.7222 15.5769 22.6029 15.5769 21.2222C15.5769 19.8415 16.7005 18.7222 18.0865 18.7222C19.4726 18.7222 20.5962 19.8415 20.5962 21.2222ZM13.3462 29C13.3462 26.392 15.4685 24.2778 18.0865 24.2778C20.7046 24.2778 22.8269 26.392 22.8269 29H13.3462ZM25.3365 21.0833C25.3365 20.6998 25.6486 20.3889 26.0337 20.3889H35.2356C35.6206 20.3889 35.9327 20.6998 35.9327 21.0833C35.9327 21.4669 35.6206 21.7778 35.2356 21.7778H26.0337C25.6486 21.7778 25.3365 21.4669 25.3365 21.0833ZM26.0337 24.2778C25.6486 24.2778 25.3365 24.5887 25.3365 24.9722C25.3365 25.3558 25.6486 25.6667 26.0337 25.6667H35.2356C35.6206 25.6667 35.9327 25.3558 35.9327 24.9722C35.9327 24.5887 35.6206 24.2778 35.2356 24.2778H26.0337Z" fill="white"/>
<defs>
<linearGradient id="paint0_linear" x1="28.5024" y1="14.3186" x2="28.5024" y2="48.0519" gradientUnits="userSpaceOnUse">
<stop stop-color="#A7A8A9"/>
<stop offset="1" stop-color="#BBBDBE" stop-opacity="0"/>
</linearGradient>
</defs>
</svg>
